<svg width="310" height="61" viewBox="0 0 310 61" version="1.1" xmlns="http://www.w3.org/2000/svg"><g id="Design-V1" stroke="none" stroke-width="1" fill="none" fill-rule="evenodd"><g id="Home-Page---Green-" transform="translate(-565 -5721)" fill="#343534"><g id="Group-Copy" transform="translate(564.5 5720.5)"><g id="Bon-Ton-Full-logo-Black-Copy" transform="translate(1.3)"><path d="M21.132 29.692h-8.368v-8.297h8.368c3.015 0 6.378 0 6.378 4.148 0 3.084-2.816 4.149-6.378 4.149zM12.764 8.789h9.154c3.383 0 5.074.627 5.074 3.68 0 2.02-1.074 3.701-5.074 3.701h-9.154V8.79zm18.207 9.313c2.787-1.305 5.075-4.16 5.075-7.383 0-6.865-3.682-8.387-12.905-8.387H0v.924c1.532.08 2.467.299 2.467 1.373V33.85c0 1.075-.935 1.314-2.467 1.383v.936h23.44c9.691 0 13.76-3.86 13.76-9.85 0-4.467-2.13-6.914-6.229-8.217z" id="Fill-8"/><path d="M69.316 28.477c-5.86 0-10.536-3.531-10.536-9.232 0-5.7 4.676-9.253 10.536-9.253 5.83 0 10.527 3.553 10.527 9.253s-4.697 9.232-10.527 9.232zm0-26.594c-9.611 0-20.536 5.224-20.536 17.362 0 12.158 10.925 17.361 20.536 17.361 9.591 0 20.516-5.203 20.516-17.361 0-12.138-10.925-17.362-20.516-17.362z" id="Fill-10"/><path d="M129.377 3.261c1.218.078 2.145.289 2.145 1.366v15.151c-6.457-6.998-13.909-14.59-13.909-15.151 0-1.077.912-1.288 1.607-1.366v-.927h-18.296v.927c1.153.078 2.075.289 2.075 1.366V33.85c0 1.072-.922 1.31-1.915 1.378v.933h13.146v-.933c-1.084-.069-1.99-.306-1.99-1.378V13.708l.14-.17c8.69 10.163 18.528 18.932 18.528 20.692 0 .93-1.455.998-2.223.998v.933h14.224v-.933c-1.237-.069-2.162-.306-2.162-1.378V4.627c0-1.077.925-1.288 2.162-1.366v-.927h-13.532v.927" id="Fill-11"/><path d="M182.174 33.85c0 1.076-.928 1.31-1.767 1.378v.933h13.835v-.933c-.86-.069-1.767-.302-1.767-1.378V10.182h10.992c.615 0 1.388.286 1.388 1.686h.923V.638h-.923c0 1.398-.773 1.696-1.388 1.696h-32.3c-.609 0-1.367-.298-1.367-1.696h-.927v11.23h.927c0-1.4.758-1.686 1.367-1.686h11.007V33.85" id="Fill-12"/><path d="M234.534 28.477c-5.83 0-10.535-3.531-10.535-9.232 0-5.7 4.705-9.253 10.535-9.253 5.861 0 10.537 3.553 10.537 9.253s-4.676 9.232-10.537 9.232zm0-26.594c-9.61 0-20.514 5.224-20.514 17.362 0 12.158 10.904 17.361 20.514 17.361 9.612 0 20.536-5.203 20.536-17.361 0-12.138-10.924-17.362-20.536-17.362z" id="Fill-13"/><path d="M308.534 3.261v-.927h-13.549v.927c1.227.078 2.157.289 2.157 1.366v15.151c-6.453-6.998-13.914-14.59-13.914-15.151 0-1.077.917-1.288 1.616-1.366v-.927h-18.3v.927c1.16.078 2.082.289 2.082 1.366V33.85c0 1.072-.921 1.31-1.928 1.378v.933h13.143v-.933c-1.08-.069-1.994-.306-1.994-1.378V13.708l.154-.17c8.68 10.163 18.526 18.932 18.526 20.692 0 .93-1.46.998-2.223.998v.933h14.23v-.933c-1.242-.069-2.161-.306-2.161-1.378V4.627c0-1.077.919-1.288 2.16-1.366" id="Fill-14"/></g><path d="M19.54 61.314c3.042 0 4.462-1.166 4.462-3.397 0-1.588-1.217-2.602-2.298-2.907.693-.304 1.369-1.183 1.369-2.433 0-1.74-1.285-3.093-3.55-3.093h-4.258c-.152 0-.254.102-.254.254V61.06c0 .152.102.253.254.253h4.275zm-.287-7.334h-1.352v-1.96h1.352c.642 0 1.15.219 1.15.946 0 .743-.49 1.014-1.15 1.014zm.406 4.8H17.9v-2.434h1.758c.76 0 1.47.287 1.47 1.183 0 .845-.608 1.25-1.47 1.25zm13.647 2.534c.135 0 .236-.05.287-.203l.524-1.656h3.938l.524 1.656c.05.152.152.203.287.203h2.484c.186 0 .27-.118.203-.287l-4.09-11.34c-.05-.135-.186-.203-.32-.203h-2.164a.289.289 0 00-.287.203l-4.073 11.34c-.068.169.017.287.203.287h2.484zm3.988-4.191h-2.433l1.216-3.82 1.217 3.82zm14.273 4.191c.152 0 .253-.101.253-.253v-3.279l.828-.963 3.076 4.343c.084.118.169.152.304.152h2.806c.202 0 .27-.135.152-.304l-4.411-6.439 4.106-4.783c.136-.152.085-.304-.135-.304h-2.94a.367.367 0 00-.305.135l-3.481 4.327v-4.208c0-.152-.101-.254-.253-.254h-2.383c-.152 0-.254.102-.254.254V61.06c0 .152.102.253.254.253h2.383zm21.623 0c.152 0 .254-.101.254-.253v-2.028c0-.152-.102-.254-.254-.254h-3.819v-2.197h3.566c.152 0 .253-.101.253-.253V54.3c0-.152-.101-.254-.253-.254H69.37V52.02h3.802c.153 0 .254-.101.254-.253v-2.028c0-.152-.101-.254-.254-.254h-6.438c-.153 0-.254.102-.254.254V61.06c0 .152.101.253.254.253h6.455zm10.893 0c.152 0 .253-.101.253-.253v-3.634h.457l2.366 3.718c.067.118.169.17.304.17h2.518c.203 0 .287-.12.169-.305l-2.586-3.972c1.504-.608 2.299-1.91 2.299-3.582 0-2.35-1.59-3.972-4.479-3.972H81.7c-.152 0-.254.102-.254.254V61.06c0 .152.102.253.254.253h2.383zm1.25-6.422h-.997V52.02h.997c.812 0 1.775.287 1.775 1.437 0 1.132-.963 1.436-1.775 1.436zm17.433 6.422c.152 0 .253-.101.253-.253v-5.155l3.448-6.118c.101-.202.034-.304-.169-.304h-2.518c-.135 0-.237.05-.304.17l-1.91 3.531-1.91-3.532c-.067-.118-.169-.169-.304-.169h-2.501c-.203 0-.27.102-.169.304l3.448 6.084v5.189c0 .152.101.253.253.253h2.383zm30.86.085l1.183-1.183c.118-.119.118-.254-.017-.372l-1.335-1.25a17.967 17.967 0 001.436-1.978c.085-.152.085-.287-.033-.372l-1.437-1.03c-.118-.085-.27-.051-.355.084-.388.574-.794 1.2-1.25 1.774l-1.809-1.673c.98-.693 1.826-1.572 1.826-2.991 0-1.656-1.572-3.06-3.397-3.06-1.927 0-3.397 1.404-3.397 3.06 0 1.014.54 1.774 1.217 2.467-1.048.693-1.978 1.623-1.978 3.076 0 2.265 2.113 3.515 4.056 3.515 1.352 0 2.535-.54 3.532-1.335l1.386 1.301c.118.119.254.085.372-.033zm-5.391-7.673c-.44-.44-.71-.811-.71-1.25 0-.406.338-.829.913-.829.54 0 .912.423.912.828 0 .474-.473.862-1.115 1.251zm.44 5.222c-1.15 0-1.572-.659-1.572-1.081 0-.507.422-.896.997-1.285l2.078 1.96a3.082 3.082 0 01-1.504.406zm26.736 2.366c.152 0 .253-.101.253-.253v-3.634h1.048c2.89 0 4.478-1.622 4.478-3.971 0-2.35-1.588-3.972-4.478-3.972h-3.684c-.152 0-.254.102-.254.254V61.06c0 .152.102.253.254.253h2.383zm1.25-6.422h-.997V52.02h.997c.811 0 1.775.287 1.775 1.437 0 1.132-.964 1.436-1.775 1.436zm14.475-6.59a.37.37 0 00.305-.136l.912-1.082.913 1.082a.367.367 0 00.304.135h1.42c.22 0 .287-.169.152-.304l-1.69-1.893a.367.367 0 00-.305-.135h-1.588a.367.367 0 00-.304.135l-1.707 1.893c-.135.135-.05.304.169.304h1.42zm-1.639 13.012c.135 0 .237-.05.287-.203l.524-1.656h3.938l.524 1.656c.05.152.152.203.287.203h2.484c.186 0 .27-.118.203-.287l-4.09-11.34c-.05-.135-.185-.203-.32-.203h-2.164a.289.289 0 00-.287.203l-4.073 11.34c-.068.169.017.287.203.287h2.484zm3.988-4.191h-2.433l1.217-3.82 1.216 3.82zm14.73 4.191c.151 0 .253-.101.253-.253v-9.042h2.484c.152 0 .253-.101.253-.253v-2.028c0-.152-.101-.254-.253-.254h-7.859c-.152 0-.253.102-.253.254v2.028c0 .152.101.253.253.253h2.485v9.042c0 .152.101.253.253.253h2.383zm13.325 0c.152 0 .254-.101.254-.253V49.738c0-.152-.102-.254-.254-.254h-2.383c-.152 0-.253.102-.253.254V61.06c0 .152.101.253.253.253h2.383zm12.092.203c2.011 0 4.242-1.166 4.242-3.65 0-4.158-5.239-3.296-5.239-4.97 0-.405.338-.827 1.132-.827.727 0 1.234.236 2.096.794.135.085.254.068.355-.067l1.234-1.538c.084-.136.084-.237-.034-.355-1.014-.93-2.18-1.555-3.752-1.555-1.943 0-3.853 1.234-3.853 3.481 0 3.904 5.239 3.363 5.239 5.003 0 .659-.66.963-1.335.963-.93 0-1.673-.304-2.552-1.014-.152-.118-.287-.084-.389.034l-1.301 1.47c-.085.118-.085.254 0 .355.743.946 2.366 1.876 4.157 1.876zm15.658 0c2.012 0 4.242-1.166 4.242-3.65 0-4.158-5.239-3.296-5.239-4.97 0-.405.338-.827 1.133-.827.726 0 1.233.236 2.095.794.135.085.254.068.355-.067l1.234-1.538c.084-.136.084-.237-.034-.355-1.014-.93-2.18-1.555-3.752-1.555-1.943 0-3.853 1.234-3.853 3.481 0 3.904 5.239 3.363 5.239 5.003 0 .659-.66.963-1.335.963-.93 0-1.673-.304-2.552-1.014-.152-.118-.287-.084-.389.034l-1.301 1.47c-.084.118-.084.254 0 .355.744.946 2.366 1.876 4.157 1.876zm18.565-.203c.152 0 .254-.101.254-.253v-2.028c0-.152-.102-.254-.254-.254h-3.819v-2.197h3.566c.152 0 .253-.101.253-.253V54.3c0-.152-.101-.254-.253-.254h-3.566V52.02h3.802c.153 0 .254-.101.254-.253v-2.028c0-.152-.101-.254-.254-.254H241.4c-.153 0-.254.102-.254.254V61.06c0 .152.101.253.254.253h6.455zm10.893 0c.152 0 .253-.101.253-.253v-3.634h.457l2.366 3.718c.067.118.169.17.304.17h2.518c.203 0 .287-.12.169-.305l-2.586-3.972c1.504-.608 2.299-1.91 2.299-3.582 0-2.35-1.59-3.972-4.479-3.972h-3.684c-.152 0-.254.102-.254.254V61.06c0 .152.102.253.254.253h2.383zm1.25-6.422h-.997V52.02h.997c.812 0 1.775.287 1.775 1.437 0 1.132-.963 1.436-1.775 1.436zm15.202 6.422c.152 0 .254-.101.254-.253V49.738c0-.152-.102-.254-.254-.254h-2.383c-.152 0-.253.102-.253.254V61.06c0 .152.101.253.253.253h2.383zm15 0c.151 0 .253-.101.253-.253v-2.028c0-.152-.102-.254-.254-.254h-3.82v-2.197h3.567c.152 0 .253-.101.253-.253V54.3c0-.152-.101-.254-.253-.254h-3.566V52.02h3.802c.152 0 .254-.101.254-.253v-2.028c0-.152-.102-.254-.254-.254h-6.439c-.152 0-.253.102-.253.254V61.06c0 .152.101.253.253.253h6.456z" id="BAKERY&amp;PÂTISSERIE" fill-rule="nonzero"/></g></g></g></svg>