<?xml version="1.0" encoding="UTF-8"?>
<svg width="310px" height="61px" viewBox="0 0 310 61" version="1.1" xmlns="http://www.w3.org/2000/svg" xmlns:xlink="http://www.w3.org/1999/xlink">
    <!-- Generator: Sketch 62 (91390) - https://sketch.com -->
    <title>Group Copy</title>
    <desc>Created with Sketch.</desc>
    <g id="Design-V1" stroke="none" stroke-width="1" fill="none" fill-rule="evenodd">
        <g id="Home-Page---Green-" transform="translate(-565.000000, -5721.000000)" fill="#343534">
            <g id="Group-Copy" transform="translate(564.500000, 5720.500000)">
                <g id="Bon-Ton-Full-logo-Black-Copy" transform="translate(1.300000, 0.000000)">
                    <path d="M21.1315592,29.6918628 L12.7642436,29.6918628 L12.7642436,21.3946128 L21.1315592,21.3946128 C24.1468413,21.3946128 27.5099933,21.3946128 27.5099933,25.5432378 C27.5099933,28.6273563 24.6938452,29.6918628 21.1315592,29.6918628 Z M12.7642436,8.78893889 L21.9182614,8.78893889 C25.301081,8.78893889 26.9924908,9.41584222 26.9924908,12.4692302 C26.9924908,14.4888423 25.9181506,16.1704183 21.9182614,16.1704183 L12.7642436,16.1704183 L12.7642436,8.78893889 Z M30.9714831,18.1015264 C33.7581299,16.7973217 36.0457124,13.9418384 36.0457124,10.7188178 C36.0457124,3.85361167 32.3641919,2.33183456 23.1413376,2.33183456 L0,2.33183456 L0,3.25620967 C1.53161089,3.33610911 2.467049,3.55491067 2.467049,4.62925089 L2.467049,33.8503216 C2.467049,34.9246618 1.53161089,35.1643601 0,35.2331966 L0,36.1686347 L23.4400386,36.1686347 C33.1312266,36.1686347 37.1999521,32.3088769 37.1999521,26.318877 C37.1999521,21.8518834 35.0709392,19.404502 30.9714831,18.1015264 L30.9714831,18.1015264 Z" id="Fill-8"></path>
                    <path d="M69.3158411,28.4773912 C63.4561388,28.4773912 58.7801774,24.9458358 58.7801774,19.2447031 C58.7801774,13.5447997 63.4561388,9.99234744 69.3158411,9.99234744 C75.1460421,9.99234744 79.8429002,13.5447997 79.8429002,19.2447031 C79.8429002,24.9458358 75.1460421,28.4773912 69.3158411,28.4773912 Z M69.3158411,1.88316844 C59.7045526,1.88316844 48.7804547,7.10736289 48.7804547,19.2447031 C48.7804547,31.4029401 59.7045526,36.6062378 69.3158411,36.6062378 C78.9074621,36.6062378 89.83156,31.4029401 89.83156,19.2447031 C89.83156,7.10736289 78.9074621,1.88316844 69.3158411,1.88316844 L69.3158411,1.88316844 Z" id="Fill-10"></path>
                    <path d="M129.376868,3.26112656 C130.595027,3.33856756 131.521861,3.54999378 131.521861,4.62679244 L131.521861,19.7781856 C125.064757,12.7802234 117.613211,5.18731778 117.613211,4.62679244 C117.613211,3.54999378 118.525294,3.33856756 119.219805,3.26112656 L119.219805,2.334293 L100.924061,2.334293 L100.924061,3.26112656 C102.077072,3.33856756 102.998988,3.54999378 102.998988,4.62679244 L102.998988,33.8503216 C102.998988,34.9222033 102.077072,35.1594432 101.08386,35.2282797 L101.08386,36.1612593 L114.230392,36.1612593 L114.230392,35.2282797 C113.146218,35.1594432 112.240281,34.9222033 112.240281,33.8503216 L112.240281,13.7082862 L112.380412,13.5386536 C121.069784,23.7006337 130.908479,32.469905 130.908479,34.2301512 C130.908479,35.1594432 129.45308,35.2282797 128.684816,35.2282797 L128.684816,36.1612593 L142.909376,36.1612593 L142.909376,35.2282797 C141.671549,35.1594432 140.747174,34.9222033 140.747174,33.8503216 L140.747174,4.62679244 C140.747174,3.54999378 141.671549,3.33856756 142.909376,3.26112656 L142.909376,2.334293 L129.376868,2.334293 L129.376868,3.26112656" id="Fill-11"></path>
                    <path d="M182.174421,33.8503216 C182.174421,34.925891 181.246358,35.1594432 180.406799,35.2282797 L180.406799,36.1612593 L194.241696,36.1612593 L194.241696,35.2282797 C193.382469,35.1594432 192.475303,34.925891 192.475303,33.8503216 L192.475303,10.1816477 L203.467008,10.1816477 C204.081619,10.1816477 204.8548,10.4680564 204.8548,11.8681406 L205.777946,11.8681406 L205.777946,0.637966333 L204.8548,0.637966333 C204.8548,2.035592 204.081619,2.334293 203.467008,2.334293 L171.166736,2.334293 C170.558271,2.334293 169.799841,2.035592 169.799841,0.637966333 L168.873007,0.637966333 L168.873007,11.8681406 L169.799841,11.8681406 C169.799841,10.4680564 170.558271,10.1816477 171.166736,10.1816477 L182.174421,10.1816477 L182.174421,33.8503216" id="Fill-12"></path>
                    <path d="M234.534371,28.4773912 C228.70417,28.4773912 223.998707,24.9458358 223.998707,19.2447031 C223.998707,13.5447997 228.70417,9.99234744 234.534371,9.99234744 C240.395302,9.99234744 245.071264,13.5447997 245.071264,19.2447031 C245.071264,24.9458358 240.395302,28.4773912 234.534371,28.4773912 Z M234.534371,1.88316844 C224.924311,1.88316844 214.019881,7.10736289 214.019881,19.2447031 C214.019881,31.4029401 224.924311,36.6062378 234.534371,36.6062378 C244.145659,36.6062378 255.069757,31.4029401 255.069757,19.2447031 C255.069757,7.10736289 244.145659,1.88316844 234.534371,1.88316844 L234.534371,1.88316844 Z" id="Fill-13"></path>
                    <path d="M308.533549,3.26112656 L308.533549,2.334293 L294.985061,2.334293 L294.985061,3.26112656 C296.211825,3.33856756 297.142346,3.54999378 297.142346,4.62679244 L297.142346,19.7781856 C290.68893,12.7802234 283.227551,5.18731778 283.227551,4.62679244 C283.227551,3.54999378 284.14455,3.33856756 284.843978,3.26112656 L284.843978,2.334293 L266.543317,2.334293 L266.543317,3.26112656 C267.704932,3.33856756 268.62562,3.54999378 268.62562,4.62679244 L268.62562,33.8503216 C268.62562,34.9222033 267.704932,35.1594432 266.698199,35.2282797 L266.698199,36.1612593 L279.841043,36.1612593 L279.841043,35.2282797 C278.760557,35.1594432 277.847245,34.9222033 277.847245,33.8503216 L277.847245,13.7082862 L278.000898,13.5386536 C286.680436,23.7006337 296.526506,32.469905 296.526506,34.2301512 C296.526506,35.1594432 295.06619,35.2282797 294.304072,35.2282797 L294.304072,36.1612593 L308.533549,36.1612593 L308.533549,35.2282797 C307.292034,35.1594432 306.372576,34.9222033 306.372576,33.8503216 L306.372576,4.62679244 C306.372576,3.54999378 307.292034,3.33856756 308.533549,3.26112656" id="Fill-14"></path>
                </g>
                <path d="M19.5404591,61.3141111 C22.5824591,61.3141111 24.0020591,60.1480111 24.0020591,57.9172111 C24.0020591,56.3286111 22.7852591,55.3146111 21.7036591,55.0104111 C22.3965591,54.7062111 23.0725591,53.8274111 23.0725591,52.5768111 C23.0725591,50.8361111 21.7881591,49.4841111 19.5235591,49.4841111 L15.2647591,49.4841111 C15.1126591,49.4841111 15.0112591,49.5855111 15.0112591,49.7376111 L15.0112591,61.0606111 C15.0112591,61.2127111 15.1126591,61.3141111 15.2647591,61.3141111 L19.5404591,61.3141111 Z M19.2531591,53.9795111 L17.9011591,53.9795111 L17.9011591,52.0191111 L19.2531591,52.0191111 C19.8953591,52.0191111 20.4023591,52.2388111 20.4023591,52.9655111 C20.4023591,53.7091111 19.9122591,53.9795111 19.2531591,53.9795111 Z M19.6587591,58.7791111 L17.9011591,58.7791111 L17.9011591,56.3455111 L19.6587591,56.3455111 C20.4192591,56.3455111 21.1290591,56.6328111 21.1290591,57.5285111 C21.1290591,58.3735111 20.5206591,58.7791111 19.6587591,58.7791111 Z M33.3058003,61.3141111 C33.4410003,61.3141111 33.5424003,61.2634111 33.5931003,61.1113111 L34.1170003,59.4551111 L38.0547003,59.4551111 L38.5786003,61.1113111 C38.6293003,61.2634111 38.7307003,61.3141111 38.8659003,61.3141111 L41.3502003,61.3141111 C41.5361003,61.3141111 41.6206003,61.1958111 41.5530003,61.0268111 L37.4632003,49.6869111 C37.4125003,49.5517111 37.2773003,49.4841111 37.1421003,49.4841111 L34.9789003,49.4841111 C34.8437003,49.4841111 34.7423003,49.5517111 34.6916003,49.6869111 L30.6187003,61.0268111 C30.5511003,61.1958111 30.6356003,61.3141111 30.8215003,61.3141111 L33.3058003,61.3141111 Z M37.2942003,57.1229111 L34.8606003,57.1229111 L36.0774003,53.3035111 L37.2942003,57.1229111 Z M51.5665414,61.3141111 C51.7186414,61.3141111 51.8200414,61.2127111 51.8200414,61.0606111 L51.8200414,57.7820111 L52.6481414,56.8187111 L55.7239414,61.1620111 C55.8084414,61.2803111 55.8929414,61.3141111 56.0281414,61.3141111 L58.8335414,61.3141111 C59.0363414,61.3141111 59.1039414,61.1789111 58.9856414,61.0099111 L54.5747414,54.5710111 L58.6814414,49.7883111 C58.8166414,49.6362111 58.7659414,49.4841111 58.5462414,49.4841111 L55.6056414,49.4841111 C55.4873414,49.4841111 55.3859414,49.5179111 55.3014414,49.6193111 L51.8200414,53.9457111 L51.8200414,49.7376111 C51.8200414,49.5855111 51.7186414,49.4841111 51.5665414,49.4841111 L49.1836414,49.4841111 C49.0315414,49.4841111 48.9301414,49.5855111 48.9301414,49.7376111 L48.9301414,61.0606111 C48.9301414,61.2127111 49.0315414,61.3141111 49.1836414,61.3141111 L51.5665414,61.3141111 Z M73.1903826,61.3141111 C73.3424826,61.3141111 73.4438826,61.2127111 73.4438826,61.0606111 L73.4438826,59.0326111 C73.4438826,58.8805111 73.3424826,58.7791111 73.1903826,58.7791111 L69.3709826,58.7791111 L69.3709826,56.5821111 L72.9368826,56.5821111 C73.0889826,56.5821111 73.1903826,56.4807111 73.1903826,56.3286111 L73.1903826,54.3006111 C73.1903826,54.1485111 73.0889826,54.0471111 72.9368826,54.0471111 L69.3709826,54.0471111 L69.3709826,52.0191111 L73.1734826,52.0191111 C73.3255826,52.0191111 73.4269826,51.9177111 73.4269826,51.7656111 L73.4269826,49.7376111 C73.4269826,49.5855111 73.3255826,49.4841111 73.1734826,49.4841111 L66.7345826,49.4841111 C66.5824826,49.4841111 66.4810826,49.5855111 66.4810826,49.7376111 L66.4810826,61.0606111 C66.4810826,61.2127111 66.5824826,61.3141111 66.7345826,61.3141111 L73.1903826,61.3141111 Z M84.0827237,61.3141111 C84.2348237,61.3141111 84.3362237,61.2127111 84.3362237,61.0606111 L84.3362237,57.4271111 L84.7925237,57.4271111 L87.1585237,61.1451111 C87.2261237,61.2634111 87.3275237,61.3141111 87.4627237,61.3141111 L89.9808237,61.3141111 C90.1836237,61.3141111 90.2681237,61.1958111 90.1498237,61.0099111 L87.5641237,57.0384111 C89.0682237,56.4300111 89.8625237,55.1287111 89.8625237,53.4556111 C89.8625237,51.1065111 88.2739237,49.4841111 85.3840237,49.4841111 L81.6998237,49.4841111 C81.5477237,49.4841111 81.4463237,49.5855111 81.4463237,49.7376111 L81.4463237,61.0606111 C81.4463237,61.2127111 81.5477237,61.3141111 81.6998237,61.3141111 L84.0827237,61.3141111 Z M85.3333237,54.8921111 L84.3362237,54.8921111 L84.3362237,52.0191111 L85.3333237,52.0191111 C86.1445237,52.0191111 87.1078237,52.3064111 87.1078237,53.4556111 C87.1078237,54.5879111 86.1445237,54.8921111 85.3333237,54.8921111 Z M102.765965,61.3141111 C102.918065,61.3141111 103.019465,61.2127111 103.019465,61.0606111 L103.019465,55.9061111 L106.467065,49.7883111 C106.568465,49.5855111 106.500865,49.4841111 106.298065,49.4841111 L103.779965,49.4841111 C103.644765,49.4841111 103.543365,49.5348111 103.475765,49.6531111 L101.566065,53.1852111 L99.6563649,49.6531111 C99.5887649,49.5348111 99.4873649,49.4841111 99.3521649,49.4841111 L96.8509649,49.4841111 C96.6481649,49.4841111 96.5805649,49.5855111 96.6819649,49.7883111 L100.129565,55.8723111 L100.129565,61.0606111 C100.129565,61.2127111 100.230965,61.3141111 100.383065,61.3141111 L102.765965,61.3141111 Z M133.625947,61.3986111 L134.808947,60.2156111 C134.927247,60.0973111 134.927247,59.9621111 134.792047,59.8438111 L133.456947,58.5932111 C134.031547,57.9172111 134.504747,57.2243111 134.893447,56.6159111 C134.977947,56.4638111 134.977947,56.3286111 134.859647,56.2441111 L133.423147,55.2132111 C133.304847,55.1287111 133.152747,55.1625111 133.068247,55.2977111 C132.679547,55.8723111 132.273947,56.4976111 131.817647,57.0722111 L130.009347,55.3991111 C130.989547,54.7062111 131.834547,53.8274111 131.834547,52.4078111 C131.834547,50.7516111 130.262847,49.3489111 128.437647,49.3489111 C126.511047,49.3489111 125.040747,50.7516111 125.040747,52.4078111 C125.040747,53.4218111 125.581547,54.1823111 126.257547,54.8752111 C125.209747,55.5681111 124.280247,56.4976111 124.280247,57.9510111 C124.280247,60.2156111 126.392747,61.4662111 128.336247,61.4662111 C129.688247,61.4662111 130.871247,60.9254111 131.868347,60.1311111 L133.254147,61.4324111 C133.372447,61.5507111 133.507647,61.5169111 133.625947,61.3986111 Z M128.234847,53.7260111 C127.795447,53.2866111 127.525047,52.9148111 127.525047,52.4754111 C127.525047,52.0698111 127.863047,51.6473111 128.437647,51.6473111 C128.978447,51.6473111 129.350247,52.0698111 129.350247,52.4754111 C129.350247,52.9486111 128.877047,53.3373111 128.234847,53.7260111 Z M128.674247,58.9481111 C127.525047,58.9481111 127.102547,58.2890111 127.102547,57.8665111 C127.102547,57.3595111 127.525047,56.9708111 128.099647,56.5821111 L130.178347,58.5425111 C129.722047,58.7960111 129.215047,58.9481111 128.674247,58.9481111 Z M155.410629,61.3141111 C155.562729,61.3141111 155.664129,61.2127111 155.664129,61.0606111 L155.664129,57.4271111 L156.711929,57.4271111 C159.601829,57.4271111 161.190429,55.8047111 161.190429,53.4556111 C161.190429,51.1065111 159.601829,49.4841111 156.711929,49.4841111 L153.027729,49.4841111 C152.875629,49.4841111 152.774229,49.5855111 152.774229,49.7376111 L152.774229,61.0606111 C152.774229,61.2127111 152.875629,61.3141111 153.027729,61.3141111 L155.410629,61.3141111 Z M156.661229,54.8921111 L155.664129,54.8921111 L155.664129,52.0191111 L156.661229,52.0191111 C157.472429,52.0191111 158.435729,52.3064111 158.435729,53.4556111 C158.435729,54.5879111 157.472429,54.8921111 156.661229,54.8921111 Z M171.136371,48.3011111 C171.254671,48.3011111 171.356071,48.2673111 171.440571,48.1659111 L172.353171,47.0843111 L173.265771,48.1659111 C173.350271,48.2673111 173.451671,48.3011111 173.569971,48.3011111 L174.989571,48.3011111 C175.209271,48.3011111 175.276871,48.1321111 175.141671,47.9969111 L173.451671,46.1041111 C173.367171,46.0027111 173.265771,45.9689111 173.147471,45.9689111 L171.558871,45.9689111 C171.440571,45.9689111 171.339171,46.0027111 171.254671,46.1041111 L169.547771,47.9969111 C169.412571,48.1321111 169.497071,48.3011111 169.716771,48.3011111 L171.136371,48.3011111 Z M169.497071,61.3141111 C169.632271,61.3141111 169.733671,61.2634111 169.784371,61.1113111 L170.308271,59.4551111 L174.245971,59.4551111 L174.769871,61.1113111 C174.820571,61.2634111 174.921971,61.3141111 175.057171,61.3141111 L177.541471,61.3141111 C177.727371,61.3141111 177.811871,61.1958111 177.744271,61.0268111 L173.654471,49.6869111 C173.603771,49.5517111 173.468571,49.4841111 173.333371,49.4841111 L171.170171,49.4841111 C171.034971,49.4841111 170.933571,49.5517111 170.882871,49.6869111 L166.809971,61.0268111 C166.742371,61.1958111 166.826871,61.3141111 167.012771,61.3141111 L169.497071,61.3141111 Z M173.485471,57.1229111 L171.051871,57.1229111 L172.268671,53.3035111 L173.485471,57.1229111 Z M188.214112,61.3141111 C188.366212,61.3141111 188.467612,61.2127111 188.467612,61.0606111 L188.467612,52.0191111 L190.951912,52.0191111 C191.104012,52.0191111 191.205412,51.9177111 191.205412,51.7656111 L191.205412,49.7376111 C191.205412,49.5855111 191.104012,49.4841111 190.951912,49.4841111 L183.093412,49.4841111 C182.941312,49.4841111 182.839912,49.5855111 182.839912,49.7376111 L182.839912,51.7656111 C182.839912,51.9177111 182.941312,52.0191111 183.093412,52.0191111 L185.577712,52.0191111 L185.577712,61.0606111 C185.577712,61.2127111 185.679112,61.3141111 185.831212,61.3141111 L188.214112,61.3141111 Z M201.540053,61.3141111 C201.692153,61.3141111 201.793553,61.2127111 201.793553,61.0606111 L201.793553,49.7376111 C201.793553,49.5855111 201.692153,49.4841111 201.540053,49.4841111 L199.157153,49.4841111 C199.005053,49.4841111 198.903653,49.5855111 198.903653,49.7376111 L198.903653,61.0606111 C198.903653,61.2127111 199.005053,61.3141111 199.157153,61.3141111 L201.540053,61.3141111 Z M213.632294,61.5169111 C215.643394,61.5169111 217.874194,60.3508111 217.874194,57.8665111 C217.874194,53.7091111 212.635194,54.5710111 212.635194,52.8979111 C212.635194,52.4923111 212.973194,52.0698111 213.767494,52.0698111 C214.494194,52.0698111 215.001194,52.3064111 215.863094,52.8641111 C215.998294,52.9486111 216.116594,52.9317111 216.217994,52.7965111 L217.451694,51.2586111 C217.536194,51.1234111 217.536194,51.0220111 217.417894,50.9037111 C216.403894,49.9742111 215.237794,49.3489111 213.666094,49.3489111 C211.722594,49.3489111 209.812894,50.5826111 209.812894,52.8303111 C209.812894,56.7342111 215.051894,56.1934111 215.051894,57.8327111 C215.051894,58.4918111 214.392794,58.7960111 213.716794,58.7960111 C212.787294,58.7960111 212.043694,58.4918111 211.164894,57.7820111 C211.012794,57.6637111 210.877594,57.6975111 210.776194,57.8158111 L209.474894,59.2861111 C209.390394,59.4044111 209.390394,59.5396111 209.474894,59.6410111 C210.218494,60.5874111 211.840894,61.5169111 213.632294,61.5169111 Z M229.290435,61.5169111 C231.301535,61.5169111 233.532335,60.3508111 233.532335,57.8665111 C233.532335,53.7091111 228.293335,54.5710111 228.293335,52.8979111 C228.293335,52.4923111 228.631335,52.0698111 229.425635,52.0698111 C230.152335,52.0698111 230.659335,52.3064111 231.521235,52.8641111 C231.656435,52.9486111 231.774735,52.9317111 231.876135,52.7965111 L233.109835,51.2586111 C233.194335,51.1234111 233.194335,51.0220111 233.076035,50.9037111 C232.062035,49.9742111 230.895935,49.3489111 229.324235,49.3489111 C227.380735,49.3489111 225.471035,50.5826111 225.471035,52.8303111 C225.471035,56.7342111 230.710035,56.1934111 230.710035,57.8327111 C230.710035,58.4918111 230.050935,58.7960111 229.374935,58.7960111 C228.445435,58.7960111 227.701835,58.4918111 226.823035,57.7820111 C226.670935,57.6637111 226.535735,57.6975111 226.434335,57.8158111 L225.133035,59.2861111 C225.048535,59.4044111 225.048535,59.5396111 225.133035,59.6410111 C225.876635,60.5874111 227.499035,61.5169111 229.290435,61.5169111 Z M247.855376,61.3141111 C248.007476,61.3141111 248.108876,61.2127111 248.108876,61.0606111 L248.108876,59.0326111 C248.108876,58.8805111 248.007476,58.7791111 247.855376,58.7791111 L244.035976,58.7791111 L244.035976,56.5821111 L247.601876,56.5821111 C247.753976,56.5821111 247.855376,56.4807111 247.855376,56.3286111 L247.855376,54.3006111 C247.855376,54.1485111 247.753976,54.0471111 247.601876,54.0471111 L244.035976,54.0471111 L244.035976,52.0191111 L247.838476,52.0191111 C247.990576,52.0191111 248.091976,51.9177111 248.091976,51.7656111 L248.091976,49.7376111 C248.091976,49.5855111 247.990576,49.4841111 247.838476,49.4841111 L241.399576,49.4841111 C241.247476,49.4841111 241.146076,49.5855111 241.146076,49.7376111 L241.146076,61.0606111 C241.146076,61.2127111 241.247476,61.3141111 241.399576,61.3141111 L247.855376,61.3141111 Z M258.747717,61.3141111 C258.899817,61.3141111 259.001217,61.2127111 259.001217,61.0606111 L259.001217,57.4271111 L259.457517,57.4271111 L261.823517,61.1451111 C261.891117,61.2634111 261.992517,61.3141111 262.127717,61.3141111 L264.645817,61.3141111 C264.848617,61.3141111 264.933117,61.1958111 264.814817,61.0099111 L262.229117,57.0384111 C263.733217,56.4300111 264.527517,55.1287111 264.527517,53.4556111 C264.527517,51.1065111 262.938917,49.4841111 260.049017,49.4841111 L256.364817,49.4841111 C256.212717,49.4841111 256.111317,49.5855111 256.111317,49.7376111 L256.111317,61.0606111 C256.111317,61.2127111 256.212717,61.3141111 256.364817,61.3141111 L258.747717,61.3141111 Z M259.998317,54.8921111 L259.001217,54.8921111 L259.001217,52.0191111 L259.998317,52.0191111 C260.809517,52.0191111 261.772817,52.3064111 261.772817,53.4556111 C261.772817,54.5879111 260.809517,54.8921111 259.998317,54.8921111 Z M275.200159,61.3141111 C275.352259,61.3141111 275.453659,61.2127111 275.453659,61.0606111 L275.453659,49.7376111 C275.453659,49.5855111 275.352259,49.4841111 275.200159,49.4841111 L272.817259,49.4841111 C272.665159,49.4841111 272.563759,49.5855111 272.563759,49.7376111 L272.563759,61.0606111 C272.563759,61.2127111 272.665159,61.3141111 272.817259,61.3141111 L275.200159,61.3141111 Z M290.1992,61.3141111 C290.3513,61.3141111 290.4527,61.2127111 290.4527,61.0606111 L290.4527,59.0326111 C290.4527,58.8805111 290.3513,58.7791111 290.1992,58.7791111 L286.3798,58.7791111 L286.3798,56.5821111 L289.9457,56.5821111 C290.0978,56.5821111 290.1992,56.4807111 290.1992,56.3286111 L290.1992,54.3006111 C290.1992,54.1485111 290.0978,54.0471111 289.9457,54.0471111 L286.3798,54.0471111 L286.3798,52.0191111 L290.1823,52.0191111 C290.3344,52.0191111 290.4358,51.9177111 290.4358,51.7656111 L290.4358,49.7376111 C290.4358,49.5855111 290.3344,49.4841111 290.1823,49.4841111 L283.7434,49.4841111 C283.5913,49.4841111 283.4899,49.5855111 283.4899,49.7376111 L283.4899,61.0606111 C283.4899,61.2127111 283.5913,61.3141111 283.7434,61.3141111 L290.1992,61.3141111 Z" id="BAKERY&amp;PÂTISSERIE" fill-rule="nonzero"></path>
            </g>
        </g>
    </g>
</svg>