<svg width="19" height="18" viewBox="0 0 19 18" version="1.1" xmlns="http://www.w3.org/2000/svg"><g id="Page-1" stroke="none" stroke-width="1" fill="none" fill-rule="evenodd"><g id="Catalogue---Attributes/Yellow-Copy" transform="translate(-1386 -13)" fill="#53C999" fill-rule="nonzero"><g id="cart" transform="translate(1386 13)"><path d="M.043.496A.752.752 0 01.999.042L1.3.147c.617.215 1.14.397 1.553.597.44.214.818.478 1.102.89.282.408.399.856.452 1.348.024.22.037.463.044.731h10.638c1.685 0 3.202 0 3.645.571.444.572.27 1.433-.076 3.154l-.5 2.401c-.315 1.514-.473 2.27-1.024 2.716C16.582 13 15.8 13 14.24 13H8.938c-2.79 0-4.184 0-5.05-.905-.867-.905-.93-1.866-.93-4.778V4.74c0-.733 0-1.223-.042-1.6-.04-.359-.109-.539-.2-.67-.087-.127-.22-.246-.524-.394-.323-.156-.762-.31-1.43-.543l-.26-.09a.74.74 0 01-.46-.948zM5 14a2 2 0 110 4 2 2 0 010-4zm10 0a2 2 0 110 4 2 2 0 010-4z" id="Path"/></g></g></g></svg>