<?xml version="1.0" encoding="UTF-8"?>
<svg width="19px" height="18px" viewBox="0 0 19 18" version="1.1" xmlns="http://www.w3.org/2000/svg" xmlns:xlink="http://www.w3.org/1999/xlink">
    <title>cart</title>
    <g id="Page-1" stroke="none" stroke-width="1" fill="none" fill-rule="evenodd">
        <g id="Catalogue---Attributes/Yellow-Copy" transform="translate(-1386, -13)" fill="#53C999" fill-rule="nonzero">
            <g id="cart" transform="translate(1386, 13)">
                <path d="M0.0426571713,0.496467805 C0.180045521,0.109583838 0.608190377,-0.0937886556 0.998955682,0.0422385432 L1.30035206,0.147147503 C1.91686465,0.361727711 2.44049836,0.543981782 2.85257341,0.744176116 C3.29319812,0.958231581 3.67104358,1.2219297 3.95522017,1.63366469 C4.23719678,2.04221163 4.35361538,2.490441 4.40734473,2.9818973 C4.43139444,3.20189325 4.44408429,3.44539372 4.45077421,3.71304225 L15.0888164,3.71304225 C16.7737962,3.71304225 18.2905779,3.71304225 18.7344726,4.28439807 C19.1784673,4.85576379 19.0048694,5.71665883 18.6577735,7.43846872 L18.1579795,9.8391671 C17.8428833,11.3529016 17.6852852,12.1097194 17.1335918,12.5548597 C16.5818985,13 15.8014078,13 14.2404266,13 L8.93759031,13 C6.14870381,13 4.75427057,13 3.88788097,12.0952642 C3.02148138,11.1904294 2.95825214,10.2293579 2.95825214,7.3169363 L2.95825214,4.74106293 C2.95825214,4.00845266 2.95723216,3.51815475 2.91607265,3.14171614 C2.87674312,2.78197028 2.80704396,2.60234983 2.71678504,2.47157006 C2.6287261,2.34398825 2.49505771,2.22475282 2.19183135,2.0774486 C1.86899523,1.9206099 1.4302505,1.76660284 0.762648521,1.53421108 L0.501441659,1.44328206 C0.110676354,1.30726476 -0.0947211782,0.883361673 0.0426571713,0.496467805 Z" id="Path"></path>
                <path d="M5,14 C6.10457333,14 7,14.8954667 7,16 C7,17.1045333 6.10457333,18 5,18 C3.89542667,18 3,17.1045333 3,16 C3,14.8954667 3.89542667,14 5,14 Z" id="Path"></path>
                <path d="M15,14 C16.1045333,14 17,14.8953333 17,16 C17,17.1045333 16.1045333,18 15,18 C13.8954667,18 13,17.1045333 13,16 C13,14.8953333 13.8954667,14 15,14 Z" id="Path"></path>
            </g>
        </g>
    </g>
</svg>