<svg width="7" height="11" viewBox="0 0 7 11" version="1.1" xmlns="http://www.w3.org/2000/svg"><g id="Design-V1" stroke="none" stroke-width="1" fill="none" fill-rule="evenodd"><g id="Home-Page---Green--Copy" transform="translate(-156 -378)" fill="#4DCA98" fill-rule="nonzero"><g id="Mega-Menu" transform="translate(58.5 152)"><g id="Group-15" transform="translate(90.5 61)"><g id="Group-8"><path d="M8.889 175.373a.543.543 0 00.398-.164l4.547-4.547a.51.51 0 00.187-.398.51.51 0 00-.187-.399l-4.547-4.547a.542.542 0 00-.398-.164.542.542 0 00-.399.164l-.515.516a.586.586 0 00-.176.398.504.504 0 00.152.399l3.633 3.633-3.633 3.632a.504.504 0 00-.152.399.583.583 0 00.176.398l.515.516c.11.11.242.164.399.164z" id=""/></g></g></g></g></g></svg>