<svg width="16" height="12" viewBox="0 0 16 12" version="1.1" xmlns="http://www.w3.org/2000/svg"><g id="Design-V1" stroke="none" stroke-width="1" fill="none" fill-rule="evenodd"><g id="Shelf-Packing-List" transform="translate(-107 -511)" fill="#53C999" fill-rule="nonzero"><path d="M122.073 514.694h-1.715l-.477-1.192a3.192 3.192 0 00-2.979-2.017h-3.638c-1.32 0-2.488.792-2.979 2.017l-.476 1.192h-1.715a.344.344 0 00-.333.427l.171.687c.039.153.176.26.334.26h.575a1.82 1.82 0 00-.633 1.376v1.375c0 .461.177.878.459 1.2v1.55c0 .506.41.916.916.916h.917c.506 0 .917-.41.917-.916v-.917h7.333v.917c0 .506.41.916.917.916h.916c.507 0 .917-.41.917-.916v-1.55c.282-.322.458-.738.458-1.2v-1.375c0-.55-.247-1.04-.632-1.375h.575a.344.344 0 00.333-.26l.172-.688a.344.344 0 00-.333-.427zm-10.085-.511a1.375 1.375 0 011.276-.864h3.638c.563 0 1.068.342 1.277.864l.571 1.427h-7.333l.57-1.427zm-1.488 4.63c-.55 0-.917-.366-.917-.914s.367-.914.917-.914 1.375.823 1.375 1.371-.825.457-1.375.457zm9.167 0c-.55 0-1.375.091-1.375-.457s.825-1.37 1.375-1.37.916.365.916.913-.366.914-.916.914z" id="curbside"/></g></g></svg>