<svg width="18" height="16" viewBox="0 0 18 16" version="1.1" xmlns="http://www.w3.org/2000/svg"><g id="Mobile" stroke="none" stroke-width="1" fill="none" fill-rule="evenodd"><g id="Mobile-Products" transform="translate(-1463 -1628)" fill="#53C999" fill-rule="nonzero"><path d="M1478.709 1633.387c.078 0 .146-.03.205-.088l1.054-1.055c.215-.215.323-.478.323-.79 0-.313-.108-.587-.323-.821l-1.435-1.436a1.176 1.176 0 00-.82-.322c-.313 0-.577.107-.792.322l-1.054 1.055a.281.281 0 000 .41l2.637 2.637a.281.281 0 00.205.088zm-3.575 10.488c.391 0 .723-.137.996-.41.274-.274.41-.606.41-.996v-4.63a.321.321 0 00-.22-.321c-.146-.059-.268-.03-.365.087l-1.172 1.172a.278.278 0 00-.117.235V1642h-9.375v-9.375h6.738c.098 0 .176-.03.234-.088l1.172-1.201c.117-.098.147-.22.088-.366a.321.321 0 00-.322-.22h-8.38c-.39 0-.722.137-.995.41-.274.274-.41.606-.41.996v10.313c0 .39.136.722.41.996.273.273.605.41.996.41h10.312zm-6.5-2.81l.114-.003 2.695-.292 6.416-6.416a.281.281 0 000-.41l-2.637-2.637a.281.281 0 00-.41 0l-6.416 6.416-.293 2.695a.569.569 0 00.645.645l-.113.002z" id=""/></g></g></svg>