<svg width="15" height="9" viewBox="0 0 15 9" version="1.1" xmlns="http://www.w3.org/2000/svg"><g id="Mobile" stroke="none" stroke-width="1" fill="none" fill-rule="evenodd"><g id="Mobile-Products" transform="translate(-1320 -1634)" fill="#53C999" fill-rule="nonzero"><g id="Group-11-Copy" transform="translate(1267.683 1256)"><g id="Group-10" transform="translate(30.344 186.5)"><g id="Group-9" transform="translate(12.605 177.5)"><path d="M16.605 23c1.37 0 2.67-.36 3.903-1.082a8.288 8.288 0 002.941-2.879c.104-.182.156-.362.156-.539 0-.177-.052-.357-.156-.54a8.342 8.342 0 00-2.941-2.874C19.276 14.362 17.975 14 16.605 14s-2.67.362-3.902 1.086a8.342 8.342 0 00-2.941 2.875 1.081 1.081 0 00-.157.539c0 .177.052.357.157.54a8.342 8.342 0 002.941 2.874c1.232.724 2.533 1.086 3.902 1.086zm-2-5.125a.362.362 0 01-.265-.11.362.362 0 01-.11-.265c0-.651.233-1.21.7-1.676a2.286 2.286 0 011.675-.699.36.36 0 01.266.11c.073.072.11.16.11.265a.362.362 0 01-.11.266.362.362 0 01-.266.109c-.448 0-.83.159-1.148.477-.318.317-.477.7-.477 1.148a.362.362 0 01-.11.266.362.362 0 01-.265.109zm2 4.125a6.432 6.432 0 01-3.394-.95 8.064 8.064 0 01-2.606-2.55c.792-1.23 1.784-2.148 2.977-2.758a3.414 3.414 0 00-.477 1.758 3.37 3.37 0 001.028 2.473A3.37 3.37 0 0016.605 21a3.37 3.37 0 002.473-1.027 3.37 3.37 0 001.027-2.473c0-.63-.159-1.216-.476-1.758 1.192.61 2.185 1.529 2.976 2.758A8.064 8.064 0 0120 21.05a6.432 6.432 0 01-3.395.95z" id="яБо"/></g></g></g></g></g></svg>