<svg width="31" height="25" viewBox="0 0 31 25" version="1.1" xmlns="http://www.w3.org/2000/svg"><g id="Design-V1" stroke="none" stroke-width="1" fill="none" fill-rule="evenodd"><g id="gifts-solid" transform="translate(.828 .5)" fill="#FFF" fill-rule="nonzero"><path d="M11.009 8.927c.087-1.41.792-2.8 2.013-3.651a1.45 1.45 0 00-1.308-.838h-1.346l1.405-1.006a.728.728 0 00.17-1.02l-.426-.595a.728.728 0 00-1.02-.17L9.031 2.695l.526-1.4a.732.732 0 00-.43-.943L8.442.096a.732.732 0 00-.943.43l-.91 2.425-.91-2.43a.732.732 0 00-.943-.43l-.687.257a.727.727 0 00-.425.942l.526 1.4-1.469-1.043a.732.732 0 00-1.02.17l-.426.594a.732.732 0 00.17 1.02l1.404 1.007H1.464C.654 4.438 0 5.093 0 5.903v16.106c0 .81.654 1.464 1.464 1.464h7.728a2.907 2.907 0 01-.407-1.464v-10.25c0-1.368.952-2.516 2.224-2.832zm-.76 13.082c0 .81.655 1.464 1.465 1.464h7.32v-5.857H10.25v4.393zm10.25 1.464h7.32c.81 0 1.465-.654 1.465-1.464v-4.393h-8.785v5.857zm7.32-13.178h-.933c.12-.348.202-.71.202-1.089 0-1.624-1.236-3.303-3.3-3.303-2.2 0-3.472 2.182-4.021 3.445-.554-1.263-1.826-3.445-4.022-3.445-2.064 0-3.3 1.679-3.3 3.303 0 .38.078.741.202 1.09h-.933c-.81 0-1.465.653-1.465 1.463v4.393h8.786v-5.857h.7l.032-.009.032.01h.7v5.856h8.785v-4.393c0-.81-.654-1.464-1.464-1.464zm-12.445 0a1.72 1.72 0 01-.33-.22 1.123 1.123 0 01-.402-.869c0-.444.293-1.107 1.103-1.107.855 0 1.629 1.254 2.036 2.196h-2.407zm9.115-.22a1.72 1.72 0 01-.33.22h-2.407c.403-.929 1.181-2.196 2.037-2.196.81 0 1.102.663 1.102 1.107 0 .238-.068.577-.402.87z" id="Shape"/></g></g></svg>