<svg width="14" height="12" viewBox="0 0 14 12" version="1.1" xmlns="http://www.w3.org/2000/svg"><g id="Design-V1" stroke="none" stroke-width="1" fill="none" fill-rule="evenodd"><g id="Shelf-Packing-List" transform="translate(-107 -313)" fill="#53C999" fill-rule="nonzero"><path d="M120.276 316.033l-1.395-2.225a.688.688 0 00-.582-.323h-8.68a.688.688 0 00-.582.323l-1.394 2.225c-.72 1.15-.082 2.748 1.263 2.93a2.121 2.121 0 001.88-.692 2.125 2.125 0 003.171.001 2.125 2.125 0 003.171 0 2.128 2.128 0 001.88.692c1.35-.18 1.99-1.78 1.268-2.93zm-1.558 3.64c-.215 0-.427-.032-.634-.082v2.144h-8.25v-2.144a2.846 2.846 0 01-.633.082c-.13 0-.26-.009-.387-.026a2.702 2.702 0 01-.352-.077v4.228c0 .38.307.687.687.687h9.625c.38 0 .688-.307.688-.687v-4.228a2.194 2.194 0 01-.353.077c-.13.017-.26.026-.39.026z" id="instore"/></g></g></svg>