<svg width="12" height="16" viewBox="0 0 12 16" version="1.1" xmlns="http://www.w3.org/2000/svg"><g id="Design-V1" stroke="none" stroke-width="1" fill="none" fill-rule="evenodd"><g id="Process-&amp;-Stories" transform="translate(-1256 -15)" fill="#53C999" fill-rule="nonzero"><path d="M1261.625 30.875c.254 0 .45-.098.586-.293l1.963-2.812c.976-1.407 1.62-2.354 1.933-2.842.45-.703.752-1.294.909-1.773.156-.478.234-1.03.234-1.655a5.43 5.43 0 00-.762-2.812 5.733 5.733 0 00-2.05-2.051 5.43 5.43 0 00-2.813-.762 5.43 5.43 0 00-2.813.762 5.733 5.733 0 00-2.05 2.05A5.43 5.43 0 001256 21.5c0 .625.078 1.177.234 1.655.157.479.46 1.07.909 1.773.312.488.957 1.435 1.933 2.842.8 1.132 1.455 2.07 1.963 2.812a.672.672 0 00.586.293zm0-7.031c-.645 0-1.196-.23-1.655-.689a2.257 2.257 0 01-.689-1.655c0-.645.23-1.196.689-1.655a2.257 2.257 0 011.655-.689c.645 0 1.196.23 1.655.689.46.459.689 1.01.689 1.655s-.23 1.196-.689 1.655a2.257 2.257 0 01-1.655.689z" id="map"/></g></g></svg>