<svg width="17" height="17" viewBox="0 0 17 17" version="1.1" xmlns="http://www.w3.org/2000/svg"><g id="Design-V1" stroke="none" stroke-width="1" fill="none" fill-rule="evenodd"><g id="Home-Page---June-2020" transform="translate(-1202 -5046)" fill="#53C999" fill-rule="nonzero"><g id="Group-9-Copy" transform="translate(1191 5034.5)"><path d="M17.797 28a.667.667 0 00.547-.281l1.968-2.406 3.907 1.624c.208.105.422.094.64-.03a.747.747 0 00.391-.532l2.25-13.5a.714.714 0 00-.328-.734c-.26-.177-.526-.193-.797-.047l-14.469 8.375c-.291.146-.427.375-.406.687a.72.72 0 00.469.657l3.312 1.375 8.969-7.907c.083-.062.167-.057.25.016.083.073.094.15.031.234L17 24.72v2.5c0 .25.078.442.234.578a.83.83 0 00.563.203z" id="newsletter"/></g></g></g></svg>