<svg width="14" height="16" viewBox="0 0 14 16" version="1.1" xmlns="http://www.w3.org/2000/svg"><g id="Design-V1" stroke="none" stroke-width="1" fill="none" fill-rule="evenodd"><g id="Process-&amp;-Stories" transform="translate(-1092 -15)" fill="#4DCA98" fill-rule="nonzero"><path d="M1104.094 30.875c.39 0 .722-.137.996-.41a1.36 1.36 0 00.41-.996V19.156c0-.39-.137-.722-.41-.996a1.356 1.356 0 00-.996-.41h-1.407v-1.523a.339.339 0 00-.102-.25.339.339 0 00-.25-.102h-1.171a.339.339 0 00-.249.103.339.339 0 00-.103.249v1.523h-3.75v-1.523a.339.339 0 00-.102-.25.339.339 0 00-.25-.102h-1.17a.339.339 0 00-.25.103.339.339 0 00-.103.249v1.523h-1.406c-.39 0-.722.137-.996.41a1.36 1.36 0 00-.41.996V29.47c0 .39.137.722.41.996.274.273.606.41.996.41h10.313zm-.176-1.406h-9.961c-.039 0-.078-.02-.117-.059-.04-.039-.059-.078-.059-.117v-8.73h10.313v8.73c0 .039-.02.078-.059.117-.039.04-.078.059-.117.059zm-7.207-5.156c.098 0 .18-.035.249-.103a.339.339 0 00.102-.25v-1.17a.339.339 0 00-.102-.25.339.339 0 00-.25-.102h-1.17a.339.339 0 00-.25.102.339.339 0 00-.103.25v1.17a.34.34 0 00.103.25.339.339 0 00.25.103h1.17zm2.812 0a.344.344 0 00.25-.103.339.339 0 00.102-.25v-1.17a.339.339 0 00-.103-.25.339.339 0 00-.249-.102h-1.171a.339.339 0 00-.25.102.339.339 0 00-.102.25v1.17c0 .099.034.182.103.25a.339.339 0 00.249.103h1.171zm2.813 0c.098 0 .18-.035.249-.103a.339.339 0 00.102-.25v-1.17a.339.339 0 00-.102-.25.339.339 0 00-.25-.102h-1.171a.339.339 0 00-.249.102.339.339 0 00-.103.25v1.17a.34.34 0 00.103.25.339.339 0 00.249.103h1.172zm-2.813 2.812a.34.34 0 00.25-.103.339.339 0 00.102-.249v-1.171a.339.339 0 00-.103-.25.339.339 0 00-.249-.102h-1.171a.339.339 0 00-.25.103.339.339 0 00-.102.249v1.171a.34.34 0 00.103.25.339.339 0 00.249.102h1.171zm-2.812 0c.098 0 .18-.034.249-.103a.339.339 0 00.102-.249v-1.171a.339.339 0 00-.102-.25.339.339 0 00-.25-.102h-1.17a.339.339 0 00-.25.103.339.339 0 00-.103.249v1.171c0 .098.035.181.103.25a.339.339 0 00.25.102h1.17zm5.625 0c.098 0 .18-.034.249-.103a.339.339 0 00.102-.249v-1.171a.339.339 0 00-.102-.25.339.339 0 00-.25-.102h-1.171a.339.339 0 00-.249.103.339.339 0 00-.103.249v1.171c0 .098.035.181.103.25a.339.339 0 00.249.102h1.172z" id="schedule"/></g></g></svg>